# xmcd
#
# Track frame offsets:
#   150
#   13656
#   41288
#   67949
#   84546
#   108250
#   134615
#   151181
#   169582
#   192615
#   219602
#   237805
#   259131
#   291038
#
# Disc length: 4162 seconds
#
# Revision: 0
# Processed by: cddbd v1.5PL3 Copyright (c) Steve Scherf et al.
# Submitted via: Media_Universe 3.0
#
DISCID=bd10400e
DTITLE=Verzamel DBB - Nummers DBB
DYEAR=1900
DGENRE=Blues
TTITLE0=Another day
TTITLE1=Too blind to see
TTITLE2=Brother Booze
TTITLE3=Further up on the road
TTITLE4=City soldier
TTITLE5=Strange faces of love
TTITLE6=Ilove your shoes
TTITLE7=Keep'on loving
TTITLE8=Help the poor
TTITLE9=Tail dragger
TTITLE10=Cold shot
TTITLE11=Stay with me
TTITLE12=Help me
TTITLE13=Window of my eyes
EXTD=Verzameling nummers zoals de DBB die speelt
EXTT0=
EXTT1=
EXTT2=
EXTT3=
EXTT4=
EXTT5=
EXTT6=
EXTT7=
EXTT8=
EXTT9=
EXTT10=
EXTT11=
EXTT12=
EXTT13=
PLAYORDER=
